PathFileType	3	(X/Y/Z)	Static_01.trc
DataRate	CameraRate	NumFrames	NumMarkers	Units	OrigDataRate	OrigDataStartFrame	OrigNumFrames
200	200	4	32	mm	200	351	400
Frame#	Time	L_ASIS			R_ASIS			L_PSIS			R_PSIS			R_Knee_Med			R_Thigh_Upper			R_Knee_Lat			R_Thigh_Front			R_Thigh_Rear			L_Knee_Med			L_Thigh_Upper			L_Thigh_Front			L_Thigh_Rear			L_Knee_Lat			L_Ankle_Med			L_Shank_Upper			L_Shank_Front			L_Shank_Rear			L_Ankle_Lat			R_Ankle_Med			R_Shank_Upper			R_Shank_Rear			R_Shank_Front			R_Ankle_Lat			R_Heel			R_Toe_Tip			R_Toe_Med			R_Toe_Lat			L_Heel			L_Toe_Tip			L_Toe_Med			L_Toe_Lat			
		X1	Y1	Z1	X2	Y2	Z2	X3	Y3	Z3	X4	Y4	Z4	X5	Y5	Z5	X6	Y6	Z6	X7	Y7	Z7	X8	Y8	Z8	X9	Y9	Z9	X10	Y10	Z10	X11	Y11	Z11	X12	Y12	Z12	X13	Y13	Z13	X14	Y14	Z14	X15	Y15	Z15	X16	Y16	Z16	X17	Y17	Z17	X18	Y18	Z18	X19	Y19	Z19	X20	Y20	Z20	X21	Y21	Z21	X22	Y22	Z22	X23	Y23	Z23	X24	Y24	Z24	X25	Y25	Z25	X26	Y26	Z26	X27	Y27	Z27	X28	Y28	Z28	X29	Y29	Z29	X30	Y30	Z30	X31	Y31	Z31	X32	Y32	Z32
351	1.75	-1223.5271	1000.9542	-1905.9971	-1032.4825	1003.5335	-1708.148	-1301.4183	1046.0648	-1733.7541	-1212.6576	1054.3235	-1647.319	-1096.8656	467.25353	-1685.6787	-1043.4145	826.31069	-1594.8285	-1042.1934	502.9045	-1591.477	-996.56369	772.91957	-1633.6164	-1042.9449	760.54153	-1582.6195	-1264.6045	465.39939	-1782.6004	-1334.7579	858.23074	-1884.7611	-1317.0856	786.20061	-1905.0905	-1361.5428	792.1528	-1841.9738	-1341.6878	487.10899	-1854.2244	-1301.0782	74.163911	-1798.8971	-1414.6219	359.87836	-1827.5826	-1387.8543	303.01569	-1847.8308	-1416.0331	290.11084	-1807.7092	-1386.0463	66.00774	-1830.903	-1084.3997	77.540997	-1616.3759	-1072.8789	368.51498	-1520.3761	-1104.5237	308.53977	-1516.6767	-1047.7818	304.94979	-1534.8298	-1075.2651	63.489695	-1523.0933	-1146.1499	22.201486	-1525.4626	-956.4223	42.077991	-1629.5829	-966.69843	17.017153	-1654.2566	-963.07483	18.190237	-1535.6357	-1392.3215	25.417805	-1760.15	-1264.0068	38.270553	-1938.5632	-1239.0984	15.012157	-1924.5643	-1359.9666	11.043792	-1942.4648
352	1.755	-1223.5434	1000.9571	-1905.9766	-1032.4907	1003.5392	-1708.1297	-1301.4384	1046.0588	-1733.7352	-1212.6999	1054.3293	-1647.2564	-1096.8676	467.27495	-1685.6712	-1043.42	826.31205	-1594.8145	-1042.2012	502.90899	-1591.472	-996.57089	772.92347	-1633.5991	-1042.9523	760.54469	-1582.607	-1264.6158	465.40071	-1782.5873	-1334.7632	858.22939	-1884.7546	-1317.0871	786.20066	-1905.0837	-1361.5522	792.15175	-1841.9699	-1341.6906	487.11089	-1854.2279	-1301.0666	74.17063	-1798.8969	-1414.6249	359.87776	-1827.5838	-1387.8563	303.01504	-1847.8345	-1416.0358	290.10816	-1807.7104	-1386.0448	66.008096	-1830.907	-1084.4043	77.542064	-1616.3774	-1072.8825	368.51761	-1520.3683	-1104.5284	308.54361	-1516.6641	-1047.7862	304.95155	-1534.8258	-1075.2666	63.490822	-1523.0943	-1146.1486	22.203898	-1525.4639	-956.42247	42.081064	-1629.5847	-966.69976	17.017745	-1654.2573	-963.07547	18.192693	-1535.6384	-1392.3257	25.418707	-1760.1483	-1264.0074	38.27139	-1938.5635	-1239.1001	15.012898	-1924.5665	-1359.9691	11.043283	-1942.4662
353	1.76	-1223.5588	1000.9599	-1905.9566	-1032.4988	1003.545	-1708.1114	-1301.4579	1046.0506	-1733.7157	-1212.7396	1054.3342	-1647.1982	-1096.8737	467.29608	-1685.6626	-1043.4261	826.31378	-1594.8004	-1042.2105	502.91369	-1591.4665	-996.5789	772.92737	-1633.5816	-1042.9603	760.54816	-1582.5943	-1264.6283	465.40209	-1782.5732	-1334.7695	858.22849	-1884.7484	-1317.0896	786.20078	-1905.0772	-1361.5618	792.15085	-1841.9664	-1341.6941	487.11346	-1854.2289	-1301.0526	74.178345	-1798.8963	-1414.629	359.87749	-1827.5844	-1387.8594	303.01449	-1847.8372	-1416.0392	290.10597	-1807.7112	-1386.0437	66.008647	-1830.9104	-1084.4088	77.543401	-1616.3788	-1072.887	368.52033	-1520.3598	-1104.5338	308.5476	-1516.6505	-1047.7914	304.9534	-1534.8211	-1075.2683	63.491737	-1523.0951	-1146.1474	22.205919	-1525.465	-956.42287	42.083726	-1629.5862	-966.70057	17.018873	-1654.2578	-963.07609	18.194823	-1535.6408	-1392.3288	25.419437	-1760.1473	-1264.0083	38.271779	-1938.5634	-1239.1023	15.013436	-1924.5683	-1359.9706	11.04324	-1942.4672
354	1.765	-1223.5733	1000.9628	-1905.937	-1032.5069	1003.5506	-1708.0931	-1301.4776	1046.0409	-1733.6951	-1212.7761	1054.3383	-1647.1453	-1096.8839	467.3166	-1685.6529	-1043.433	826.3156	-1594.7863	-1042.221	502.91818	-1591.4603	-996.58749	772.93104	-1633.5639	-1042.969	760.55161	-1582.5813	-1264.6417	465.40345	-1782.5584	-1334.7767	858.22805	-1884.7424	-1317.0929	786.20102	-1905.0709	-1361.5718	792.15022	-1841.9631	-1341.6983	487.11674	-1854.2274	-1301.0368	74.186613	-1798.8955	-1414.6342	359.8776	-1827.5842	-1387.8635	303.01409	-1847.8384	-1416.0435	290.10437	-1807.7116	-1386.0429	66.009276	-1830.9133	-1084.4129	77.545058	-1616.38	-1072.8924	368.52274	-1520.351	-1104.5395	308.55134	-1516.636	-1047.7974	304.95499	-1534.8155	-1075.27	63.492135	-1523.0957	-1146.1462	22.207302	-1525.4657	-956.42346	42.085569	-1629.5872	-966.70065	17.020524	-1654.2582	-963.07666	18.196304	-1535.643	-1392.3304	25.419674	-1760.147	-1264.0093	38.271607	-1938.5627	-1239.1049	15.013416	-1924.5695	-1359.9708	11.043369	-1942.4676
